# Blender v2.90.1 OBJ File: 'rat.blend'
# www.blender.org
mtllib rat.mtl
o Cube
v 0.844566 0.479867 -3.480982
v 0.844566 -1.076206 -3.480982
v 0.333606 -0.343747 3.024600
v 0.333606 -1.001288 3.024600
v -0.844566 0.479867 -3.480982
v -0.844566 -1.076206 -3.480982
v -0.323935 -0.343747 3.024600
v -0.323935 -1.001288 3.024600
v -1.000000 -1.000000 1.000000
v -1.000000 1.000000 1.000000
v 1.000000 1.000000 1.000000
v 1.000000 -1.000000 1.000000
v -1.435192 -1.000000 -2.489548
v 1.435192 1.000000 -2.489548
v -1.435192 1.000000 -2.489548
v 1.435192 -1.000000 -2.489548
v 0.612917 -1.089447 -3.995713
v -0.612917 -1.089447 -3.995713
v 0.612917 0.039824 -3.995713
v -0.612917 0.039824 -3.995713
v 0.314383 -1.073163 -7.899926
v -0.314383 -1.073163 -7.899926
v 0.314383 -0.424843 -7.899926
v -0.314383 -0.424843 -7.899926
v 0.062650 -1.043988 -8.746022
v -0.062650 -1.043988 -8.746022
v 0.062650 -0.914790 -8.746022
v -0.062650 -0.914790 -8.746022
v -0.861261 -1.000264 1.415478
v -0.861261 0.724243 1.415478
v 0.863246 0.724243 1.415478
v 0.863246 -1.000264 1.415478
v -0.807007 -1.000368 1.577952
v 0.809768 0.616407 1.577953
v -0.807007 0.616407 1.577952
v 0.809768 -1.000368 1.577952
v 0.844566 0.185181 -3.480982
v -1.000000 0.621244 1.000000
v 1.000000 0.621244 1.000000
v -0.844566 0.185181 -3.480982
v -0.323935 -0.468271 3.024600
v 0.333606 -0.468271 3.024600
v 1.435192 0.621244 -2.489548
v -1.435192 0.621244 -2.489548
v 0.612917 -0.174035 -3.995713
v -0.612917 -0.174035 -3.995713
v 0.314383 -0.547620 -7.899926
v -0.314383 -0.547620 -7.899926
v 0.062650 -0.939257 -8.746022
v -0.062650 -0.939257 -8.746022
v 0.863246 0.397659 1.415478
v -0.861261 0.397659 1.415478
v -0.807007 0.310225 1.577952
v 0.809768 0.310225 1.577953
v 0.529890 -1.076206 -3.480982
v 0.627411 1.000000 1.000000
v 0.627411 -1.000000 1.000000
v 0.529890 0.479867 -3.480982
v 0.211110 -0.343747 3.024600
v 0.211110 -1.001288 3.024600
v 0.900455 -1.000000 -2.489548
v 0.900455 1.000000 -2.489548
v 0.384551 -1.089447 -3.995713
v 0.384551 0.039824 -3.995713
v 0.197247 -1.073163 -7.899926
v 0.197247 -0.424843 -7.899926
v 0.039308 -1.043988 -8.746022
v 0.039308 -0.914790 -8.746022
v 0.541980 -1.000264 1.415478
v 0.541980 0.724243 1.415478
v 0.508572 0.616407 1.577953
v 0.508572 -1.000368 1.577952
v 0.039308 -0.939257 -8.746022
v 0.211110 -0.468271 3.024600
v -0.563970 -1.076206 -3.480982
v -0.667762 1.000000 1.000000
v -0.214705 -0.343747 3.024600
v -0.958367 -1.000000 -2.489548
v -0.409283 -1.089447 -3.995713
v -0.209933 -1.073163 -7.899926
v -0.041836 -1.043988 -8.746022
v -0.574788 0.724243 1.415478
v -0.538430 0.616407 1.577952
v -0.214705 -0.468271 3.024600
v -0.667763 -1.000000 1.000000
v -0.563969 0.479867 -3.480982
v -0.214705 -1.001288 3.024600
v -0.958367 1.000000 -2.489548
v -0.409283 0.039824 -3.995713
v -0.209933 -0.424843 -7.899926
v -0.041836 -0.914790 -8.746022
v -0.574788 -1.000264 1.415478
v -0.538430 -1.000368 1.577952
v -0.041836 -0.939257 -8.746022
v 1.287118 0.768252 1.512376
v 1.287118 1.094836 1.512376
v 1.230850 0.987000 1.673905
v 1.230850 0.680818 1.673905
v 0.965900 1.094836 1.506843
v 0.929698 0.987000 1.668718
v -1.127927 0.898307 1.757838
v -1.182182 1.006143 1.595364
v -0.895709 1.006143 1.595364
v -0.859351 0.898307 1.757838
v -1.182182 0.679559 1.595364
v -1.127927 0.592125 1.757838
v 0.844566 -0.702582 -3.480982
v 1.000000 -0.519786 1.000000
v -0.844566 -0.702582 -3.480982
v 0.333606 -0.711786 3.024600
v 1.435192 -0.519786 -2.489548
v -1.435192 -0.519786 -2.489548
v 0.612917 -0.818301 -3.995713
v -0.612917 -0.818301 -3.995713
v 0.314383 -0.917497 -7.899926
v -0.314383 -0.917497 -7.899926
v 0.062650 -1.012966 -8.746022
v -0.062650 -1.012966 -8.746022
v -0.861261 -0.586198 1.415478
v -0.807007 -0.612169 1.577952
v -1.000000 -0.519786 1.000000
v -0.323935 -0.711786 3.024600
v 0.863246 -0.586198 1.415478
v 0.809768 -0.612169 1.577953
v 0.211110 -0.711786 3.024600
v 0.039308 -1.012966 -8.746022
v -0.041836 -1.012966 -8.746022
v -0.214705 -0.711786 3.024600
v 0.102330 -0.460606 3.033683
v -0.113438 -0.460606 3.033683
v 0.102330 -1.020866 3.058755
v -0.113438 -1.020866 3.058755
v -0.744904 -1.000486 1.763932
v 0.748553 0.492970 1.763932
v -0.744904 0.492970 1.763932
v 0.748553 -1.000486 1.763932
v 0.748553 0.210143 1.763932
v -0.744904 0.210143 1.763932
v 0.470330 -1.000486 1.763932
v 0.470330 0.492970 1.763932
v -0.496813 0.492970 1.763932
v -0.496813 -1.000486 1.763932
v -0.744904 -0.641896 1.763932
v 0.748553 -0.641897 1.763932
v -0.667347 -1.000634 1.996189
v 0.672106 0.338819 1.996189
v -0.667347 0.338819 1.996189
v 0.672106 -1.000634 1.996189
v 0.672106 0.085156 1.996189
v -0.667347 0.085156 1.996189
v 0.422573 -1.000634 1.996189
v 0.422573 0.338819 1.996189
v -0.444839 0.338819 1.996189
v -0.444839 -1.000634 1.996189
v -0.667347 -0.547399 1.996189
v 0.672106 -0.547399 1.996189
v -1.000000 0.291426 1.000000
v -0.323935 -0.576706 3.024600
v 0.863246 0.113272 1.415478
v 0.809768 0.043604 1.577953
v 0.844566 -0.071430 -3.480982
v 1.000000 0.291426 1.000000
v -0.844566 -0.071430 -3.480982
v 0.333606 -0.576706 3.024600
v 1.435192 0.291426 -2.489548
v -1.435192 0.291426 -2.489548
v 0.612917 -0.360262 -3.995713
v -0.612917 -0.360262 -3.995713
v 0.314383 -0.654534 -7.899926
v -0.314383 -0.654534 -7.899926
v 0.062650 -0.960563 -8.746022
v -0.062650 -0.960563 -8.746022
v -0.861261 0.113272 1.415478
v -0.807007 0.043604 1.577952
v 0.211110 -0.576706 3.024600
v 0.039308 -0.960563 -8.746022
v -0.041836 -0.960563 -8.746022
v -0.214705 -0.576706 3.024600
v 0.102330 -0.622551 3.040930
v -0.113438 -0.622551 3.040930
v 0.748553 -0.036142 1.763932
v -0.744904 -0.036142 1.763932
v -0.667347 -0.135732 1.996189
v 0.672106 -0.135732 1.996189
v -0.498346 0.085156 1.939755
v -0.575902 0.210143 1.707498
v -0.575902 -0.036142 1.707498
v -0.498346 -0.135732 1.939755
v 0.486010 0.085156 1.934936
v 0.562456 0.210143 1.702679
v 0.562456 -0.036142 1.702679
v 0.486010 -0.135732 1.934935
vt 0.833470 0.625429
vt 0.875000 0.625429
vt 0.875000 0.750000
vt 0.833470 0.750000
vt 0.577655 0.958470
vt 0.625000 0.958470
vt 0.625000 1.000000
vt 0.577655 1.000000
vt 0.577655 0.124571
vt 0.625000 0.124571
vt 0.625000 0.250000
vt 0.577655 0.250000
vt 0.328426 0.625429
vt 0.375000 0.625429
vt 0.375000 0.750000
vt 0.328426 0.750000
vt 0.577656 0.625430
vt 0.625000 0.625429
vt 0.625000 0.750000
vt 0.577655 0.750000
vt 0.625000 0.250000
vt 0.577655 0.250000
vt 0.577655 1.000000
vt 0.625000 1.000000
vt 0.625000 1.000000
vt 0.577655 1.000000
vt 0.435027 0.750000
vt 0.375000 0.750000
vt 0.435027 0.750000
vt 0.625000 0.796574
vt 0.625000 0.750000
vt 0.625000 0.796574
vt 0.375000 0.958470
vt 0.375000 1.000000
vt 0.375000 1.000000
vt 0.375000 0.958470
vt 0.577655 0.500000
vt 0.625000 0.500000
vt 0.328426 0.500000
vt 0.375000 0.500000
vt 0.577655 0.000000
vt 0.625000 0.000000
vt 0.833470 0.500000
vt 0.875000 0.500000
vt 0.671574 0.500000
vt 0.625000 0.500000
vt 0.625000 0.500000
vt 0.671574 0.500000
vt 0.166530 0.500000
vt 0.125000 0.500000
vt 0.125000 0.500000
vt 0.166530 0.500000
vt 0.671574 0.500000
vt 0.435027 0.500000
vt 0.375000 0.500000
vt 0.435027 0.500000
vt 0.577655 0.250000
vt 0.625000 0.250000
vt 0.625000 0.250000
vt 0.577656 0.250000
vt 0.375000 0.500000
vt 0.435027 0.500000
vt 0.125000 0.500000
vt 0.166530 0.500000
vt 0.577656 0.453426
vt 0.625000 0.453426
vt 0.625000 0.500000
vt 0.577656 0.500000
vt 0.125000 0.500000
vt 0.166530 0.500000
vt 0.671574 0.500000
vt 0.375000 0.500000
vt 0.435027 0.500000
vt 0.375000 0.958470
vt 0.375000 1.000000
vt 0.625000 0.796574
vt 0.625000 0.796574
vt 0.625000 0.796574
vt 0.435027 0.750000
vt 0.375000 0.750000
vt 0.577655 1.000000
vt 0.625000 1.000000
vt 0.577655 1.000000
vt 0.625000 1.000000
vt 0.625000 1.000000
vt 0.577655 1.000000
vt 0.435027 0.750000
vt 0.375000 0.750000
vt 0.625000 0.796574
vt 0.625000 0.750000
vt 0.625000 0.750000
vt 0.375000 0.958470
vt 0.375000 1.000000
vt 0.577656 0.750000
vt 0.577655 0.750000
vt 0.536428 1.000000
vt 0.536428 1.000000
vt 0.536428 1.000000
vt 0.625000 0.750000
vt 0.577655 0.500000
vt 0.536428 0.453426
vt 0.536428 0.500000
vt 0.536428 0.250000
vt 0.536428 0.250000
vt 0.577656 0.500000
vt 0.536428 0.250000
vt 0.536428 0.000000
vt 0.536428 0.124571
vt 0.536428 0.500000
vt 0.536428 0.625430
vt 0.577655 0.750000
vt 0.536428 1.000000
vt 0.536428 0.250000
vt 0.536428 0.750000
vt 0.536428 0.958470
vt 0.536428 1.000000
vt 0.536428 0.750000
vt 0.577655 0.750000
vt 0.577656 0.796574
vt 0.536428 0.796574
vt 0.536428 0.291530
vt 0.577656 0.291530
vt 0.375000 0.796574
vt 0.375000 0.796574
vt 0.625000 0.958470
vt 0.625000 0.958470
vt 0.625000 0.958470
vt 0.375000 0.796574
vt 0.833470 0.500000
vt 0.833470 0.500000
vt 0.328426 0.500000
vt 0.328426 0.500000
vt 0.625000 0.291530
vt 0.328426 0.500000
vt 0.833470 0.500000
vt 0.671574 0.625430
vt 0.166530 0.625429
vt 0.375000 0.796574
vt 0.625000 0.958470
vt 0.166530 0.750000
vt 0.625000 0.750000
vt 0.625000 0.796574
vt 0.671574 0.750000
vt 0.125000 0.625429
vt 0.125000 0.750000
vt 0.875000 0.500000
vt 0.875000 0.500000
vt 0.875000 0.500000
vt 0.625000 0.958470
vt 0.625000 0.958470
vt 0.577656 0.796574
vt 0.536428 0.796574
vt 0.533204 0.080715
vt 0.330679 0.535816
vt 0.000073 0.485499
vt 0.216093 0.000073
vt 0.533204 0.999927
vt 0.216093 0.980536
vt 0.577655 0.750000
vt 0.577655 0.750000
vt 0.625000 0.750000
vt 0.577655 1.000000
vt 0.625000 1.000000
vt 0.375000 0.796574
vt 0.435027 0.796574
vt 0.435027 0.958470
vt 0.375000 0.958470
vt 0.375000 0.250000
vt 0.435027 0.250000
vt 0.435027 0.291530
vt 0.375000 0.291530
vt 0.435027 0.453426
vt 0.375000 0.453426
vt 0.375000 0.750000
vt 0.435027 0.750000
vt 0.435027 1.000000
vt 0.375000 1.000000
vt 0.375000 0.124571
vt 0.435027 0.124571
vt 0.435027 0.250000
vt 0.375000 0.250000
vt 0.435027 0.625429
vt 0.435027 0.250000
vt 0.375000 0.250000
vt 0.435027 1.000000
vt 0.435027 1.000000
vt 0.375000 0.000000
vt 0.435027 0.000000
vt 0.375000 0.250000
vt 0.435027 0.250000
vt 0.435027 1.000000
vt 0.435027 1.000000
vt 0.536428 0.750000
vt 0.536428 0.750000
vt 0.536428 0.750000
vt 0.536428 0.500000
vt 0.536428 0.500000
vt 0.577655 0.958470
vt 0.536428 0.958470
vt 0.435027 0.958470
vt 0.435027 0.796574
vt 0.536428 0.750000
vt 0.435027 0.750000
vt 0.375000 1.000000
vt 0.435027 1.000000
vt 0.375000 0.796574
vt 0.375000 0.958470
vt 0.625000 1.000000
vt 0.625000 0.958470
vt 0.625000 0.796574
vt 0.375000 0.750000
vt 0.536428 1.000000
vt 0.536428 1.000000
vt 0.536428 1.000000
vt 0.625000 0.750000
vt 0.577656 0.750000
vt 0.577655 1.000000
vt 0.577656 0.750000
vt 0.536428 0.750000
vt 0.577655 1.000000
vt 0.577655 1.000000
vt 0.577656 0.750000
vt 0.536428 0.750000
vn 0.0000 1.0000 0.0000
vn 0.0000 0.0000 1.0000
vn -0.8591 0.0000 -0.5118
vn 0.0000 -1.0000 0.0000
vn 0.9923 0.0000 0.1238
vn -0.9119 0.0000 -0.4104
vn -0.9485 0.0000 0.3167
vn 0.9499 -0.0000 0.3126
vn 0.0000 0.8332 0.5530
vn 0.0000 -1.0000 -0.0006
vn 0.8591 0.0000 -0.5118
vn 0.0000 -0.9971 0.0766
vn -0.9923 0.0000 0.1238
vn 0.0000 0.8855 -0.4646
vn 0.0000 0.9930 -0.1182
vn 0.0000 -0.9997 0.0257
vn 0.0000 0.7601 -0.6498
vn 0.9119 0.0000 -0.4104
vn -0.9585 0.0000 -0.2852
vn 0.9971 0.0000 -0.0762
vn -0.9971 0.0000 -0.0762
vn 0.0000 -1.0000 -0.0042
vn 0.0000 0.0000 -1.0000
vn 0.0000 -0.9994 -0.0345
vn 0.0000 0.8654 -0.5011
vn 0.9585 0.0000 -0.2852
vn -0.6638 0.6806 0.3101
vn -0.4890 0.0000 -0.8723
vn 0.0084 0.2372 -0.9714
vn 0.7162 0.6446 0.2676
vn 0.1114 0.0266 0.9934
vn -0.0095 0.8332 0.5529
vn 0.9443 0.0000 0.3290
vn 0.2229 0.0000 -0.9749
vn 0.6714 -0.7230 -0.1628
vn -0.0084 -0.2353 0.9719
vn -0.2222 0.0000 0.9750
vn 0.0000 0.5379 -0.8430
vn -0.6976 -0.7018 -0.1447
vn 0.0000 -0.5379 0.8430
vn 0.4890 0.0000 0.8723
vn 0.0000 0.0447 0.9990
vn -0.1872 0.0328 0.9818
vn 0.0000 0.7642 -0.6449
vn 0.0000 -0.1098 -0.9939
vn 0.1193 0.9263 0.3573
vn -0.3126 0.0000 0.9499
vn -0.1195 0.0266 0.9925
vn 0.1747 0.0329 0.9841
vn -0.3167 0.0000 -0.9485
vn 0.3167 0.0000 0.9485
vn -0.1440 -0.8907 -0.4312
vn 0.1423 -0.8904 -0.4323
vn -0.1179 0.9261 0.3583
vn 0.3126 0.0000 -0.9499
usemtl Material
s off
f 88/1/1 15/2/1 10/3/1 76/4/1
f 84/5/2 77/6/2 7/7/2 41/8/2
f 44/9/3 15/10/3 5/11/3 40/12/3
f 61/13/4 16/14/4 12/15/4 57/16/4
f 43/17/5 14/18/5 11/19/5 39/20/5
f 40/12/6 5/11/6 20/21/6 46/22/6
f 52/23/7 30/24/7 10/25/7 38/26/7
f 123/27/8 32/28/8 12/15/8 108/29/8
f 70/30/9 31/31/9 11/19/9 56/32/9
f 92/33/10 29/34/10 9/35/10 85/36/10
f 37/37/11 1/38/11 14/18/11 43/17/11
f 55/39/12 2/40/12 16/14/12 61/13/12
f 38/41/13 10/42/13 15/10/13 44/9/13
f 86/43/14 5/44/14 15/2/14 88/1/14
f 64/45/15 19/46/15 23/47/15 66/48/15
f 75/49/16 6/50/16 18/51/16 79/52/16
f 58/53/17 1/38/17 19/46/17 64/45/17
f 107/54/18 2/40/18 17/55/18 113/56/18
f 48/57/19 24/58/19 28/59/19 50/60/19
f 113/56/20 17/55/20 21/61/20 115/62/20
f 46/22/21 20/21/21 24/58/21 48/57/21
f 79/52/22 18/51/22 22/63/22 80/64/22
f 73/65/23 68/66/23 27/67/23 49/68/23
f 80/64/24 22/63/24 26/69/24 81/70/24
f 66/48/25 23/47/25 27/67/25 68/71/25
f 115/62/26 21/61/26 25/72/26 117/73/26
f 93/74/10 33/75/10 29/34/10 92/33/10
f 70/30/27 71/76/27 100/77/27 99/78/27
f 124/79/8 36/80/8 32/28/8 123/27/8
f 30/24/28 52/23/28 105/81/28 102/82/28
f 138/83/7 135/84/7 35/85/7 53/86/7
f 144/87/8 136/88/8 36/80/8 124/79/8
f 140/89/9 134/90/9 34/91/9 71/76/9
f 142/92/10 133/93/10 33/75/10 93/74/10
f 134/90/8 137/94/8 54/95/8 34/91/8
f 182/96/7 138/83/7 53/86/7 174/97/7
f 174/97/7 53/86/7 52/23/7 173/98/7
f 31/31/29 70/30/29 99/78/29 96/99/29
f 23/47/26 47/100/26 49/68/26 27/67/26
f 176/101/23 73/65/23 49/68/23 171/102/23
f 168/103/21 46/22/21 48/57/21 170/104/21
f 19/46/20 45/105/20 47/100/20 23/47/20
f 170/104/19 48/57/19 50/60/19 172/106/19
f 1/38/18 37/37/18 45/105/18 19/46/18
f 157/107/13 38/41/13 44/9/13 166/108/13
f 161/109/11 37/37/11 43/17/11 165/110/11
f 31/31/8 51/111/8 39/20/8 11/19/8
f 173/98/7 52/23/7 38/26/7 157/112/7
f 163/113/6 40/12/6 46/22/6 168/103/6
f 165/110/5 43/17/5 39/20/5 162/114/5
f 166/108/3 44/9/3 40/12/3 163/113/3
f 178/115/2 84/5/2 41/8/2 158/116/2
f 164/117/2 42/118/2 74/119/2 175/120/2
f 177/121/23 94/122/23 73/65/23 176/101/23
f 136/88/10 139/123/10 72/124/10 36/80/10
f 141/125/9 140/89/9 71/76/9 83/126/9
f 83/126/9 71/76/9 70/30/9 82/127/9
f 36/80/10 72/124/10 69/128/10 32/28/10
f 90/129/25 66/48/25 68/71/25 91/130/25
f 21/61/24 65/131/24 67/132/24 25/72/24
f 94/122/23 91/133/23 68/66/23 73/65/23
f 17/55/22 63/134/22 65/131/22 21/61/22
f 86/43/17 58/53/17 64/45/17 89/135/17
f 2/40/16 55/39/16 63/134/16 17/55/16
f 89/135/15 64/45/15 66/48/15 90/129/15
f 1/38/14 58/53/14 62/136/14 14/18/14
f 75/49/12 55/39/12 61/13/12 78/137/12
f 32/28/10 69/128/10 57/138/10 12/15/10
f 82/127/9 70/30/9 56/32/9 76/139/9
f 78/137/4 61/13/4 57/16/4 85/140/4
f 42/118/2 3/141/2 59/142/2 74/119/2
f 14/18/1 62/136/1 56/143/1 11/19/1
f 13/144/4 78/137/4 85/140/4 9/145/4
f 30/24/9 82/127/9 76/139/9 10/25/9
f 6/50/12 75/49/12 78/137/12 13/144/12
f 20/146/15 89/135/15 90/129/15 24/147/15
f 5/44/17 86/43/17 89/135/17 20/146/17
f 50/60/23 28/59/23 91/133/23 94/122/23
f 24/147/25 90/129/25 91/130/25 28/148/25
f 83/126/30 82/127/30 103/149/30 104/150/30
f 135/84/9 141/125/9 83/126/9 35/85/9
f 172/106/23 50/60/23 94/122/23 177/121/23
f 175/120/31 74/119/31 129/151/31 179/152/31
f 139/123/10 142/92/10 93/74/10 72/124/10
f 72/124/10 93/74/10 92/33/10 69/128/10
f 65/131/24 80/64/24 81/70/24 67/132/24
f 63/134/22 79/52/22 80/64/22 65/131/22
f 55/39/16 75/49/16 79/52/16 63/134/16
f 58/53/14 86/43/14 88/1/14 62/136/14
f 69/128/10 92/33/10 85/36/10 57/138/10
f 74/119/2 59/142/2 77/6/2 84/5/2
f 62/136/1 88/1/1 76/4/1 56/143/1
f 100/153/32 97/154/32 96/155/32 99/156/32
f 97/154/33 98/157/33 95/158/33 96/155/33
f 51/111/34 31/31/34 96/99/34 95/159/34
f 54/95/35 51/111/35 95/159/35 98/160/35
f 71/76/36 34/91/36 97/161/36 100/77/36
f 34/91/37 54/95/37 98/160/37 97/161/37
f 106/162/7 101/163/7 102/82/7 105/81/7
f 101/163/9 104/150/9 103/149/9 102/82/9
f 82/127/38 30/24/38 102/82/38 103/149/38
f 52/23/39 53/86/39 106/162/39 105/81/39
f 35/85/40 83/126/40 104/150/40 101/163/40
f 53/86/41 35/85/41 101/163/41 106/162/41
f 60/164/2 125/165/2 128/166/2 87/167/2
f 26/168/23 118/169/23 127/170/23 81/171/23
f 81/171/23 127/170/23 126/172/23 67/173/23
f 4/174/2 110/175/2 125/165/2 60/164/2
f 87/167/2 128/166/2 122/176/2 8/177/2
f 13/178/3 112/179/3 109/180/3 6/181/3
f 16/14/5 111/182/5 108/29/5 12/15/5
f 6/181/6 109/180/6 114/183/6 18/184/6
f 29/34/7 119/185/7 121/186/7 9/35/7
f 2/40/11 107/54/11 111/182/11 16/14/11
f 9/187/13 121/188/13 112/179/13 13/178/13
f 22/189/19 116/190/19 118/169/19 26/168/19
f 18/184/21 114/183/21 116/190/21 22/189/21
f 67/173/23 126/172/23 117/73/23 25/72/23
f 33/75/7 120/191/7 119/185/7 29/34/7
f 133/93/7 143/192/7 120/191/7 33/75/7
f 181/193/8 144/87/8 124/79/8 160/194/8
f 160/194/8 124/79/8 123/27/8 159/195/8
f 169/196/26 115/62/26 117/73/26 171/102/26
f 167/197/20 113/56/20 115/62/20 169/196/20
f 161/109/18 107/54/18 113/56/18 167/197/18
f 159/195/8 123/27/8 108/29/8 162/114/8
f 179/152/42 129/151/42 130/198/42 180/199/42
f 178/115/43 128/166/43 132/200/43 180/199/43
f 74/119/44 84/5/44 130/198/44 129/151/44
f 128/166/45 125/165/45 131/201/45 132/200/45
f 184/202/8 156/203/8 144/87/8 181/193/8
f 145/204/7 155/205/7 143/192/7 133/93/7
f 151/206/10 154/207/10 142/92/10 139/123/10
f 147/208/9 153/209/9 141/125/9 135/84/9
f 153/209/9 152/210/9 140/89/9 141/125/9
f 148/211/10 151/206/10 139/123/10 136/88/10
f 182/96/46 183/212/46 188/213/46 187/214/46
f 146/215/8 149/216/8 137/94/8 134/90/8
f 154/207/10 145/204/10 133/93/10 142/92/10
f 152/210/9 146/215/9 134/90/9 140/89/9
f 156/203/8 148/211/8 136/88/8 144/87/8
f 150/217/7 147/208/7 135/84/7 138/83/7
f 41/8/7 7/7/7 147/208/7 150/217/7
f 110/175/8 4/174/8 148/211/8 156/203/8
f 59/142/9 3/141/9 146/215/9 152/210/9
f 87/167/10 8/177/10 145/204/10 154/207/10
f 3/141/8 42/118/8 149/216/8 146/215/8
f 158/116/7 41/8/7 150/217/7 183/212/7
f 4/174/10 60/164/10 151/206/10 148/211/10
f 77/6/9 59/142/9 152/210/9 153/209/9
f 7/7/9 77/6/9 153/209/9 147/208/9
f 60/164/10 87/167/10 154/207/10 151/206/10
f 8/177/7 122/176/7 155/205/7 145/204/7
f 164/117/8 110/175/8 156/203/8 184/202/8
f 42/118/8 164/117/8 184/202/8 149/216/8
f 122/176/7 158/116/7 183/212/7 155/205/7
f 155/205/7 183/212/7 182/96/7 143/192/7
f 181/193/47 137/94/47 190/218/47 191/219/47
f 84/5/48 178/115/48 180/199/48 130/198/48
f 131/201/42 179/152/42 180/199/42 132/200/42
f 51/111/8 159/195/8 162/114/8 39/20/8
f 37/37/18 161/109/18 167/197/18 45/105/18
f 45/105/20 167/197/20 169/196/20 47/100/20
f 47/100/26 169/196/26 171/102/26 49/68/26
f 54/95/8 160/194/8 159/195/8 51/111/8
f 137/94/8 181/193/8 160/194/8 54/95/8
f 125/165/49 175/120/49 179/152/49 131/201/49
f 118/169/23 172/106/23 177/121/23 127/170/23
f 127/170/23 177/121/23 176/101/23 126/172/23
f 110/175/2 164/117/2 175/120/2 125/165/2
f 128/166/2 178/115/2 158/116/2 122/176/2
f 112/179/3 166/108/3 163/113/3 109/180/3
f 111/182/5 165/110/5 162/114/5 108/29/5
f 109/180/6 163/113/6 168/103/6 114/183/6
f 119/185/7 173/98/7 157/112/7 121/186/7
f 107/54/11 161/109/11 165/110/11 111/182/11
f 121/188/13 157/107/13 166/108/13 112/179/13
f 116/190/19 170/104/19 172/106/19 118/169/19
f 114/183/21 168/103/21 170/104/21 116/190/21
f 126/172/23 176/101/23 171/102/23 117/73/23
f 120/191/7 174/97/7 173/98/7 119/185/7
f 143/192/7 182/96/7 174/97/7 120/191/7
f 188/213/7 185/220/7 186/221/7 187/214/7
f 183/212/50 150/217/50 185/220/50 188/213/50
f 138/83/51 182/96/51 187/214/51 186/221/51
f 150/217/52 138/83/52 186/221/52 185/220/52
f 189/222/8 192/223/8 191/219/8 190/218/8
f 137/94/53 149/216/53 189/222/53 190/218/53
f 184/202/54 181/193/54 191/219/54 192/223/54
f 149/216/55 184/202/55 192/223/55 189/222/55
